<svg width="40" height="40" viewBox="0 0 40 40" fill="none" xmlns="http://www.w3.org/2000/svg">
<path fill-rule="evenodd" clip-rule="evenodd" d="M24.5608 11.6666C22.0525 11.6666 20.2542 13.1516 19.1133 15.1808C17.9917 17.1733 17.5 19.6891 17.5 21.9016C17.5 22.5358 17.71 23.1933 17.9475 23.7541C18.1942 24.3358 18.5142 24.9141 18.8225 25.4175C18.8936 25.5341 18.9644 25.6469 19.035 25.7558C19.121 25.8901 19.1667 26.0463 19.1667 26.2058V34.2775C19.1667 34.6233 19.485 35 20 35C20.515 35 20.8333 34.6233 20.8333 34.2775V26.6183C20.8333 24.1433 21.645 21.6625 22.3258 19.5791L22.345 19.5216C22.4661 19.1533 22.5814 18.7966 22.6908 18.4516C22.8664 17.8989 23.0469 17.378 23.2325 16.8891C23.2956 16.7218 23.4109 16.5792 23.5614 16.4824C23.7118 16.3856 23.8894 16.3399 24.0679 16.3518C24.2464 16.3638 24.4163 16.4329 24.5525 16.5488C24.6887 16.6648 24.7839 16.8215 24.8242 16.9958L25.4208 19.5608C25.4833 19.8291 25.6433 20.0275 25.8292 20.1291L29.6825 20.99C29.7339 21.0016 29.7842 21.018 29.8325 21.0391C30.1575 21.18 30.595 21.0391 30.7717 20.56C30.945 20.0875 30.7383 19.6091 30.4133 19.4183L27.33 18.8816C27.1689 18.8535 27.0196 18.7787 26.9008 18.6663C26.782 18.554 26.6988 18.4092 26.6617 18.25L25.28 12.3166C25.18 11.8891 24.8533 11.6666 24.5608 11.6666ZM17.6608 14.3633C18.995 11.99 21.2692 9.99998 24.5608 9.99998C25.715 9.99998 26.6483 10.8441 26.9033 11.9391L28.16 17.335L30.8167 17.7975C30.8817 17.8086 30.9447 17.8275 31.0058 17.8541C32.26 18.3983 32.7967 19.8825 32.335 21.1358C31.8742 22.3891 30.5217 23.1 29.25 22.6008L25.3717 21.7341C25.3202 21.7228 25.27 21.7066 25.2217 21.6858C24.9074 21.5452 24.6255 21.3411 24.3938 21.0864C24.1621 20.8317 23.9854 20.5319 23.875 20.2058C23.19 22.3008 22.5 24.4891 22.5 26.6183V34.2775C22.5 35.65 21.325 36.6666 20 36.6666C18.675 36.6666 17.5 35.65 17.5 34.2775V26.4475C17.4667 26.3953 17.4336 26.3419 17.4008 26.2875C17.0263 25.6846 16.6962 25.0551 16.4133 24.4041C16.1442 23.7708 15.8333 22.8683 15.8333 21.9016C15.8333 19.4816 16.3658 16.6658 17.6608 14.3633ZM8.43082 8.39581C8.53465 8.20083 8.71165 8.05505 8.92291 7.99052C9.13418 7.92598 9.36243 7.94797 9.55749 8.05165L14.2058 10.5225C14.345 10.5965 14.4604 10.7086 14.5384 10.8456C14.6165 10.9826 14.6541 11.1389 14.6468 11.2964C14.6396 11.4539 14.5878 11.6062 14.4975 11.7354C14.4072 11.8647 14.2821 11.9657 14.1367 12.0266L12.7117 12.6233L15.3167 14.0608C15.5068 14.1693 15.6466 14.3483 15.7058 14.5591C15.765 14.7698 15.739 14.9954 15.6332 15.1871C15.5275 15.3788 15.3505 15.5212 15.1407 15.5834C14.9308 15.6457 14.7049 15.6229 14.5117 15.52L10.3975 13.25C10.2603 13.1743 10.1473 13.0615 10.0713 12.9245C9.99535 12.7875 9.95953 12.6319 9.96797 12.4755C9.97641 12.319 10.0288 12.1682 10.119 12.0401C10.2093 11.9121 10.3338 11.8121 10.4783 11.7516L11.87 11.1683L8.77582 9.52331C8.6791 9.47197 8.59344 9.40208 8.52374 9.31761C8.45405 9.23315 8.40168 9.13578 8.36964 9.03107C8.3376 8.92635 8.32651 8.81635 8.33701 8.70735C8.34751 8.59835 8.37939 8.49249 8.43082 8.39581ZM8.19332 16.6483C8.28499 16.1816 8.71249 15.8758 9.14749 15.9658L12.2025 16.5991C12.3495 16.6321 12.4844 16.7056 12.5918 16.8112C12.6993 16.9167 12.7752 17.0503 12.8108 17.1966C12.8908 17.5033 12.805 17.8358 12.5867 18.06L11.9225 18.7433L13.5375 19.1633C13.9667 19.275 14.2242 19.74 14.1117 20.2025C13.9992 20.665 13.5592 20.9491 13.1292 20.8375L10.1083 20.0508C9.96651 20.0107 9.83818 19.933 9.73695 19.8259C9.63572 19.7188 9.56536 19.5863 9.53332 19.4425C9.46082 19.14 9.54832 18.8175 9.76082 18.5983L10.3642 17.9783L8.81249 17.6575C8.37832 17.5675 8.10082 17.115 8.19332 16.6483ZM27.5 8.33331C27.942 8.33331 28.3659 8.15772 28.6785 7.84516C28.9911 7.5326 29.1667 7.10867 29.1667 6.66665C29.1667 6.22462 28.9911 5.8007 28.6785 5.48813C28.3659 5.17557 27.942 4.99998 27.5 4.99998C27.058 4.99998 26.634 5.17557 26.3215 5.48813C26.0089 5.8007 25.8333 6.22462 25.8333 6.66665C25.8333 7.10867 26.0089 7.5326 26.3215 7.84516C26.634 8.15772 27.058 8.33331 27.5 8.33331ZM27.5 9.99998C28.384 9.99998 29.2319 9.64879 29.857 9.02367C30.4821 8.39855 30.8333 7.5507 30.8333 6.66665C30.8333 5.78259 30.4821 4.93474 29.857 4.30962C29.2319 3.6845 28.384 3.33331 27.5 3.33331C26.6159 3.33331 25.7681 3.6845 25.143 4.30962C24.5178 4.93474 24.1667 5.78259 24.1667 6.66665C24.1667 7.5507 24.5178 8.39855 25.143 9.02367C25.7681 9.64879 26.6159 9.99998 27.5 9.99998Z" fill="#c9633b"/>
</svg>
