<svg width="40" height="40" viewBox="0 0 40 40" fill="none" xmlns="http://www.w3.org/2000/svg">
<path d="M9.16667 13.3333C8.69445 13.3333 8.29889 13.1733 7.98001 12.8533C7.66112 12.5333 7.50112 12.1378 7.50001 11.6667C7.49889 11.1955 7.65889 10.8 7.98001 10.48C8.30112 10.16 8.69667 9.99999 9.16667 9.99999C9.63667 9.99999 10.0328 10.16 10.355 10.48C10.6772 10.8 10.8367 11.1955 10.8333 11.6667C10.83 12.1378 10.67 12.5339 10.3533 12.855C10.0367 13.1761 9.64112 13.3355 9.16667 13.3333ZM16.6667 36.6667C14.8333 36.6667 13.2639 36.0139 11.9583 34.7083C10.6528 33.4028 10 31.8333 10 30V20C10 17.2222 10.9722 14.8611 12.9167 12.9167C14.8611 10.9722 17.2222 9.99999 20 9.99999H23.0417C24.9583 9.99999 26.5972 10.6461 27.9583 11.9383C29.3194 13.2305 30 14.8205 30 16.7083C30 17.9861 29.66 19.16 28.98 20.23C28.3 21.3 27.3756 22.1122 26.2067 22.6667C25.3178 23.0833 24.6167 23.7017 24.1033 24.5217C23.59 25.3417 23.3333 26.2372 23.3333 27.2083V30C23.3333 31.8611 22.6878 33.4378 21.3967 34.73C20.1056 36.0222 18.5289 36.6678 16.6667 36.6667ZM13.3333 9.99999C12.8611 9.99999 12.4656 9.83998 12.1467 9.51998C11.8278 9.19998 11.6678 8.80443 11.6667 8.33332V7.49999C11.6667 7.02776 11.8267 6.63221 12.1467 6.31332C12.4667 5.99443 12.8622 5.83443 13.3333 5.83332C13.8044 5.83221 14.2006 5.99221 14.5217 6.31332C14.8428 6.63443 15.0022 7.02999 15 7.49999V8.33332C15 8.80554 14.84 9.20165 14.52 9.52165C14.2 9.84165 13.8044 10.0011 13.3333 9.99999ZM16.6667 33.3333C17.5833 33.3333 18.3683 33.0072 19.0217 32.355C19.675 31.7028 20.0011 30.9178 20 30V27.2083C20 25.5972 20.4239 24.1111 21.2717 22.75C22.1194 21.3889 23.2789 20.3611 24.75 19.6667C25.3333 19.3889 25.7989 18.9789 26.1467 18.4367C26.4944 17.8944 26.6678 17.3044 26.6667 16.6667C26.6667 15.6944 26.3056 14.8961 25.5833 14.2717C24.8611 13.6472 24.0139 13.3344 23.0417 13.3333H20C18.1667 13.3333 16.5972 13.9861 15.2917 15.2917C13.9861 16.5972 13.3333 18.1667 13.3333 20V30C13.3333 30.9167 13.66 31.7017 14.3133 32.355C14.9667 33.0083 15.7511 33.3344 16.6667 33.3333ZM18.3333 8.33332C17.8611 8.33332 17.4656 8.17332 17.1467 7.85332C16.8278 7.53332 16.6678 7.13776 16.6667 6.66665V5.83332C16.6667 5.3611 16.8267 4.96554 17.1467 4.64665C17.4667 4.32776 17.8622 4.16776 18.3333 4.16665C18.8044 4.16554 19.2006 4.32554 19.5217 4.64665C19.8428 4.96776 20.0022 5.36332 20 5.83332V6.66665C20 7.13887 19.84 7.53498 19.52 7.85498C19.2 8.17498 18.8044 8.33443 18.3333 8.33332ZM23.3333 8.33332C22.8611 8.33332 22.4656 8.17332 22.1467 7.85332C21.8278 7.53332 21.6678 7.13776 21.6667 6.66665V4.99999C21.6667 4.52776 21.8267 4.13221 22.1467 3.81332C22.4667 3.49443 22.8622 3.33443 23.3333 3.33332C23.8045 3.33221 24.2006 3.49221 24.5217 3.81332C24.8428 4.13443 25.0022 4.52999 25 4.99999V6.66665C25 7.13887 24.84 7.53498 24.52 7.85498C24.2 8.17498 23.8045 8.33443 23.3333 8.33332ZM29.1667 9.99999C28.4722 9.99999 27.8822 9.75721 27.3967 9.27165C26.9111 8.7861 26.6678 8.19554 26.6667 7.49999V5.83332C26.6667 5.13887 26.91 4.54887 27.3967 4.06332C27.8833 3.57776 28.4733 3.33443 29.1667 3.33332C29.86 3.33221 30.4506 3.57554 30.9383 4.06332C31.4261 4.5511 31.6689 5.1411 31.6667 5.83332V7.49999C31.6667 8.19443 31.4239 8.78499 30.9383 9.27165C30.4528 9.75832 29.8622 10.0011 29.1667 9.99999Z" fill="#c9633b"/>
</svg>
