<svg width="40" height="40" viewBox="0 0 40 40" fill="none" xmlns="http://www.w3.org/2000/svg">
<g clip-path="url(#clip0_52_6)">
<path fill-rule="evenodd" clip-rule="evenodd" d="M17.6433 3.50004C18.2333 2.91083 19.0227 2.56413 19.8558 2.52834C20.6888 2.49255 21.505 2.77027 22.1433 3.30671L22.3567 3.50171L25.5233 6.66671H30C30.8407 6.66686 31.6503 6.98466 32.2665 7.55644C32.8828 8.12821 33.2603 8.91174 33.3233 9.75004L33.3333 10V14.4767L36.5 17.6434C37.0897 18.2334 37.4367 19.0232 37.4725 19.8566C37.5083 20.69 37.2303 21.5066 36.6933 22.145L36.4983 22.3567L33.3317 25.5234V30C33.3319 30.841 33.0143 31.651 32.4425 32.2676C31.8707 32.8843 31.0869 33.262 30.2483 33.325L30 33.3334H25.525L22.3583 36.5C21.7683 37.0897 20.9786 37.4367 20.1451 37.4725C19.3117 37.5083 18.4951 37.2303 17.8567 36.6934L17.645 36.5L14.4783 33.3334H10C9.15905 33.3336 8.34907 33.016 7.73243 32.4442C7.1158 31.8724 6.73808 31.0886 6.67501 30.25L6.66668 30V25.5234L3.50001 22.3567C2.91034 21.7666 2.56334 20.9769 2.52755 20.1435C2.49175 19.3101 2.76976 18.4935 3.30668 17.855L3.50001 17.6434L6.66668 14.4767V10C6.66683 9.15937 6.98463 8.3498 7.55641 7.73352C8.12818 7.11724 8.91171 6.73976 9.75001 6.67671L10 6.66671H14.4767L17.6433 3.50004ZM25.1317 14.9717L18.0583 22.045L15.1117 19.0984C14.7989 18.7859 14.3749 18.6104 13.9328 18.6105C13.4906 18.6107 13.0667 18.7865 12.7542 19.0992C12.4417 19.4119 12.2662 19.836 12.2663 20.2781C12.2665 20.7203 12.4423 21.1442 12.755 21.4567L16.7617 25.4634C16.9319 25.6337 17.1341 25.7688 17.3566 25.861C17.579 25.9532 17.8175 26.0007 18.0583 26.0007C18.2992 26.0007 18.5376 25.9532 18.7601 25.861C18.9826 25.7688 19.1848 25.6337 19.355 25.4634L27.4883 17.3284C27.7919 17.014 27.9599 16.593 27.9561 16.156C27.9523 15.719 27.7771 15.301 27.468 14.992C27.159 14.683 26.741 14.5077 26.304 14.5039C25.867 14.5001 25.446 14.6681 25.1317 14.9717Z" fill="#c9633b"/>
</g>
<defs>
<clipPath id="clip0_52_6">
<rect width="40" height="40" fill="white"/>
</clipPath>
</defs>
</svg>
