<svg width="30" height="30" viewBox="0 0 30 30" fill="none" xmlns="http://www.w3.org/2000/svg">
<path d="M13.125 19.0625C12.8838 19.0441 12.6594 18.9319 12.5 18.75L8.74998 15C8.66643 14.8251 8.63917 14.6285 8.67195 14.4374C8.70473 14.2464 8.79595 14.0702 8.93304 13.9331C9.07012 13.796 9.24634 13.7048 9.43741 13.672C9.62849 13.6392 9.82504 13.6665 9.99998 13.75L13.0875 16.8375L23.75 6.25001C23.9249 6.16646 24.1215 6.1392 24.3125 6.17198C24.5036 6.20476 24.6798 6.29598 24.8169 6.43307C24.954 6.57015 25.0452 6.74637 25.078 6.93745C25.1108 7.12852 25.0835 7.32507 25 7.50001L13.75 18.75C13.5905 18.9319 13.3662 19.0441 13.125 19.0625Z" fill="#7b8250"/>
<path d="M14.9999 26.25C12.9892 26.2468 11.0162 25.7047 9.28604 24.6803C7.55593 23.6559 6.13198 22.1865 5.16239 20.425C4.42638 19.112 3.97094 17.6606 3.82489 16.1625C3.59612 13.9651 4.0194 11.749 5.04195 9.79058C6.06449 7.83219 7.64103 6.21822 9.57489 5.15C10.8879 4.41399 12.3393 3.95855 13.8374 3.8125C15.3301 3.65333 16.8395 3.7979 18.2749 4.2375C18.403 4.26309 18.5243 4.31516 18.6311 4.39037C18.7378 4.46557 18.8277 4.56226 18.895 4.67423C18.9622 4.7862 19.0053 4.91098 19.0215 5.04058C19.0377 5.17017 19.0266 5.30173 18.989 5.4268C18.9514 5.55187 18.8881 5.6677 18.8031 5.76687C18.7181 5.86605 18.6133 5.94637 18.4955 6.00269C18.3776 6.05901 18.2493 6.09008 18.1188 6.09393C17.9882 6.09777 17.8583 6.07429 17.7374 6.025C16.5233 5.65924 15.2482 5.54023 13.9874 5.675C12.7409 5.80159 11.5332 6.18008 10.4374 6.7875C9.38131 7.37013 8.44757 8.15107 7.68739 9.0875C6.90472 10.0415 6.32026 11.142 5.96825 12.3246C5.61624 13.5073 5.50376 14.7483 5.63739 15.975C5.76398 17.2215 6.14247 18.4292 6.74989 19.525C7.33252 20.5811 8.11346 21.5148 9.04989 22.275C10.0038 23.0577 11.1044 23.6421 12.287 23.9941C13.4697 24.3462 14.7107 24.4586 15.9374 24.325C17.1839 24.1984 18.3916 23.8199 19.4874 23.2125C20.5435 22.6299 21.4772 21.8489 22.2374 20.9125C23.0201 19.9586 23.6045 18.858 23.9565 17.6754C24.3085 16.4927 24.421 15.2517 24.2874 14.025C24.2625 13.7648 24.3421 13.5053 24.5085 13.3037C24.6749 13.1021 24.9146 12.9749 25.1749 12.95C25.4351 12.9251 25.6946 13.0047 25.8962 13.1711C26.0978 13.3376 26.225 13.5773 26.2499 13.8375C26.4775 16.0362 26.0524 18.2533 25.0275 20.2118C24.0027 22.1703 22.4236 23.7835 20.4874 24.85C19.1604 25.6161 17.6866 26.0932 16.1624 26.25H14.9999Z" fill="#7b8250"/>
</svg>
