<svg width="40" height="40" viewBox="0 0 40 40" fill="none" xmlns="http://www.w3.org/2000/svg">
<path d="M20 36.6667C10.795 36.6667 3.33337 29.205 3.33337 20C3.33337 10.795 10.795 3.33334 20 3.33334C29.205 3.33334 36.6667 10.795 36.6667 20C36.6667 29.205 29.205 36.6667 20 36.6667ZM20 33.3333C23.5363 33.3333 26.9276 31.9286 29.4281 29.4281C31.9286 26.9276 33.3334 23.5362 33.3334 20C33.3334 16.4638 31.9286 13.0724 29.4281 10.5719C26.9276 8.07143 23.5363 6.66668 20 6.66668C16.4638 6.66668 13.0724 8.07143 10.572 10.5719C8.07147 13.0724 6.66671 16.4638 6.66671 20C6.66671 23.5362 8.07147 26.9276 10.572 29.4281C13.0724 31.9286 16.4638 33.3333 20 33.3333ZM18.3384 26.6667L11.2667 19.595L13.6234 17.2383L18.3384 21.9533L27.7667 12.525L30.1234 14.8817L18.3384 26.6667Z" fill="#E08700"/>
</svg>
