<svg width="40" height="40" viewBox="0 0 40 40" fill="none" xmlns="http://www.w3.org/2000/svg">
<path d="M7.03668 36.6583V30.7416C7.03668 28.6233 6.48168 27.5216 5.39168 25.68C4.0629 23.4302 3.35282 20.869 3.3335 18.2562C3.31418 15.6434 3.9863 13.0719 5.28167 10.8028C6.57704 8.53358 8.44956 6.6474 10.7093 5.33558C12.969 4.02376 15.5355 3.33298 18.1483 3.33331C22.0768 3.33375 25.8443 4.8943 28.6225 7.67184C31.4006 10.4494 32.962 14.2165 32.9633 18.145C32.9633 19.1116 32.9633 19.595 33.0033 19.865C33.1 20.5116 33.4033 21.0683 33.6983 21.645L36.6667 27.4016L34.3333 28.5683C33.6583 28.905 33.32 29.0733 33.085 29.385C32.85 29.6966 32.7833 30.05 32.6517 30.7516L32.6383 30.8216C32.3333 32.435 31.9983 34.215 31.055 35.3383C30.7217 35.7333 30.3083 36.055 29.8433 36.2833C29.075 36.6583 28.13 36.6583 26.24 36.6583C25.365 36.6583 24.4883 36.6783 23.6133 36.6583C21.5417 36.6066 20 34.8633 20 32.8416" stroke="#7b8250" stroke-width="2.5" stroke-linecap="round" stroke-linejoin="round"/>
<path d="M23.98 17.5533C23.27 17.5533 22.6217 17.2833 22.13 16.8416M23.98 17.5533C23.98 19.4633 22.8734 21.2766 20.7434 21.2766C18.6134 21.2766 17.5067 23.09 17.5067 25M23.98 17.5533C27.5634 17.5533 27.5634 11.9683 23.98 11.9683C23.6534 11.9694 23.3439 12.0222 23.0517 12.1266C23.2267 7.96331 17.225 6.83331 15.865 10.7333M15.865 10.7333C16.8567 11.4016 17.5067 12.5383 17.5067 13.8283M15.865 10.7333C12.7784 8.64998 8.66503 12.3883 10.6217 15.7216C7.33836 16.2133 7.68836 21.2766 11.0334 21.2766C11.4794 21.2765 11.9187 21.1685 12.314 20.9618C12.7092 20.7552 13.0487 20.4561 13.3034 20.09" stroke="#7b8250" stroke-width="2.5" stroke-linecap="round" stroke-linejoin="round"/>
</svg>
