<svg width="40" height="40" viewBox="0 0 40 40" fill="none" xmlns="http://www.w3.org/2000/svg">
<g clip-path="url(#clip0_40_15)">
<path d="M1.54285 9.1143C2.43999 6.54859 5.97142 1.42859 12.9057 1.42859C21.5771 1.42859 26.5543 8.80002 25.0343 15.7C23.72 21.6829 19.9857 23.7686 18.34 25.1943C15.9343 27.28 15.9343 28.98 15.0628 31.7314C14.5571 33.3229 12.8057 35.5914 10.36 35.8743C8.58856 36.0743 6.45999 35.2314 4.17713 32.3314M38.5714 27.96C38.5714 30.7743 37.4534 33.4734 35.4634 35.4634C33.4734 37.4535 30.7743 38.5714 27.96 38.5714M33.6657 27.76C33.6657 29.2733 33.0646 30.7245 31.9945 31.7946C30.9245 32.8646 29.4732 33.4657 27.96 33.4657M28.92 26.1714C28.9192 26.8744 28.6396 27.5484 28.1426 28.0455C27.6455 28.5425 26.9715 28.8221 26.2686 28.8229" stroke="#c9633b" stroke-width="2.85714" stroke-linecap="round" stroke-linejoin="round"/>
<path d="M6.70285 12.8457C7.22285 11.56 9.07428 9.05714 12.3314 9.30286C15.5886 9.54571 18.3828 12.8457 17.2314 15.9029C16.0771 18.9657 14.5543 18.0171 13.1686 20.0743C11.7828 22.1343 12.3 26.2657 9.21713 26.8829C7.29713 27.2657 6.28571 26.1629 6.28571 26.1629" stroke="#c9633b" stroke-width="2.85714" stroke-linecap="round" stroke-linejoin="round"/>
</g>
<defs>
<clipPath id="clip0_40_15">
<rect width="40" height="40" fill="white"/>
</clipPath>
</defs>
</svg>
