<svg width="40" height="40" viewBox="0 0 40 40" fill="none" xmlns="http://www.w3.org/2000/svg">
<path d="M20 3.33337C29.2 3.33337 36.6667 10.8 36.6667 20C36.6667 29.2 29.2 36.6667 20 36.6667C10.8 36.6667 3.33334 29.2 3.33334 20C3.33334 10.8 10.8 3.33337 20 3.33337ZM20 33.3334C27.3783 33.3334 33.3333 27.3784 33.3333 20C33.3333 12.6217 27.3783 6.66671 20 6.66671C18.2484 6.66451 16.5136 7.00789 14.895 7.67718C13.2763 8.34646 11.8056 9.32851 10.567 10.5671C9.32848 11.8056 8.34643 13.2763 7.67715 14.895C7.00786 16.5137 6.66448 18.2485 6.66668 20C6.66668 27.3784 12.6217 33.3334 20 33.3334ZM20 30C14.4667 30 10 25.5334 10 20C10 14.4667 14.4667 10 20 10C25.5333 10 30 14.4667 30 20C30 25.5334 25.5333 30 20 30ZM20 16.6667C18.1667 16.6667 16.6667 18.1667 16.6667 20C16.6667 21.8334 18.1667 23.3334 20 23.3334C21.8333 23.3334 23.3333 21.8334 23.3333 20C23.3333 18.1667 21.8333 16.6667 20 16.6667Z" fill="#7b8250"/>
</svg>
