<svg width="40" height="40" viewBox="0 0 40 40" fill="none" xmlns="http://www.w3.org/2000/svg">
<g clip-path="url(#clip0_56_8)">
<path fill-rule="evenodd" clip-rule="evenodd" d="M28.5629 0.628525C28.8628 0.327691 29.2454 0.122799 29.6621 0.0398772C30.0787 -0.0430449 30.5106 -0.000255202 30.9029 0.162811L36.98 2.68281C37.5041 2.89921 37.921 3.3145 38.1395 3.83771C38.358 4.36092 38.3603 4.94939 38.1457 5.47424L35.6629 11.5514C35.5025 11.9438 35.2293 12.2798 34.8778 12.5169C34.5264 12.7541 34.1125 12.8816 33.6886 12.8834C33.2647 12.8853 32.8497 12.7613 32.4962 12.5273C32.1428 12.2932 31.8667 11.9595 31.7029 11.5685L30.7229 9.22567L6.04287 19.7714C5.78397 19.8821 5.50582 19.9407 5.22427 19.9439C4.94273 19.9471 4.66332 19.8948 4.40199 19.79C4.14066 19.6852 3.90253 19.5299 3.70119 19.3331C3.49986 19.1363 3.33927 18.9017 3.22858 18.6428C3.11789 18.3839 3.05929 18.1058 3.0561 17.8242C3.05291 17.5427 3.10521 17.2633 3.21001 17.0019C3.31481 16.7406 3.47005 16.5025 3.66688 16.3011C3.8637 16.0998 4.09826 15.9392 4.35715 15.8285L29.0686 5.27138L28.1057 2.97138C27.941 2.57956 27.8965 2.14759 27.9779 1.73041C28.0593 1.31322 28.2629 0.92967 28.5629 0.628525ZM36.4286 15.6571C37.1863 15.6571 37.9131 15.9581 38.4489 16.4939C38.9847 17.0298 39.2857 17.7565 39.2857 18.5142V38.5142C39.2857 38.8931 39.1352 39.2565 38.8673 39.5244C38.5994 39.7923 38.236 39.9428 37.8572 39.9428H30.7143C30.3354 39.9428 29.9721 39.7923 29.7041 39.5244C29.4362 39.2565 29.2857 38.8931 29.2857 38.5142V18.5142C29.2857 17.7565 29.5867 17.0298 30.1226 16.4939C30.6584 15.9581 31.3851 15.6571 32.1429 15.6571H36.4286ZM24.1629 20.7771C23.6267 20.2423 22.9002 19.9422 22.1429 19.9428H17.8572C17.0994 19.9428 16.3727 20.2438 15.8368 20.7797C15.301 21.3155 15 22.0422 15 22.8V38.5142C15 38.8931 15.1505 39.2565 15.4184 39.5244C15.6863 39.7923 16.0497 39.9428 16.4286 39.9428H23.5714C23.9503 39.9428 24.3137 39.7923 24.5816 39.5244C24.8495 39.2565 25 38.8931 25 38.5142V22.8C25.0003 22.4243 24.9265 22.0523 24.7829 21.7052C24.6392 21.3581 24.4285 21.0427 24.1629 20.7771ZM7.85715 24.2285C8.61491 24.2285 9.34164 24.5295 9.87746 25.0654C10.4133 25.6012 10.7143 26.3279 10.7143 27.0857V38.5142C10.7143 38.8931 10.5638 39.2565 10.2959 39.5244C10.028 39.7923 9.6646 39.9428 9.28572 39.9428H2.14287C1.76399 39.9428 1.40062 39.7923 1.13271 39.5244C0.864804 39.2565 0.714294 38.8931 0.714294 38.5142V27.0857C0.714294 26.3279 1.01531 25.6012 1.55113 25.0654C2.08695 24.5295 2.81368 24.2285 3.57144 24.2285H7.85715Z" fill="#c9633b"/>
</g>
<defs>
<clipPath id="clip0_56_8">
<rect width="40" height="40" fill="white"/>
</clipPath>
</defs>
</svg>
