<svg xmlns="http://www.w3.org/2000/svg" fill="none" viewBox="0 0 24 34"><path fill="#c9633b" fill-rule="evenodd" d="M.333 2.833v25a2.5 2.5 0 0 0 2.5 2.5h10.834v-2.945a3.333 3.333 0 1 1 3.333 0v2.945h4.167a2.5 2.5 0 0 0 2.5-2.5v-25a2.5 2.5 0 0 0-2.5-2.5H2.833a2.5 2.5 0 0 0-2.5 2.5Zm15 23.334a1.667 1.667 0 1 0 0-3.334 1.667 1.667 0 0 0 0 3.334ZM7 6.167a.833.833 0 0 1 .833-.834h8.334a.833.833 0 0 1 0 1.667H7.833A.833.833 0 0 1 7 6.167Zm-2.5 4.166A.833.833 0 1 0 4.5 12h15a.834.834 0 0 0 0-1.667h-15ZM3.667 14.5a.833.833 0 0 1 .833-.833h15a.833.833 0 0 1 0 1.666h-15a.833.833 0 0 1-.833-.833ZM4.5 17a.833.833 0 1 0 0 1.667h15a.833.833 0 0 0 0-1.667h-15Z" clip-rule="evenodd"/><path fill="#c9633b" d="M13.667 33.667v-3.334H17v3.334l-1.667-1.25-1.666 1.25Z"/></svg>