<svg width="40" height="40" viewBox="0 0 40 40" fill="none" xmlns="http://www.w3.org/2000/svg">
<path d="M1.78984 1.18359V5.49531C4.13594 7.12422 7.74141 9.39844 10.9141 11.5938C12.5625 12.7344 14.0937 13.8516 15.2656 14.8594C16.4453 15.8594 17.3047 16.6563 17.5703 17.6484L17.5937 17.7266V17.8047C17.625 18.9922 17.8828 19.7734 18.2109 20.2422C18.5391 20.7109 18.9219 20.9141 19.4297 20.9844C20.4375 21.1328 21.9453 20.5156 23.125 19.4844C24.2969 18.4531 25.0781 17.0703 25.0156 16.0313C24.9844 15.5156 24.7891 15.0625 24.2812 14.6172C23.7812 14.1719 22.9297 13.75 21.6328 13.4766C20.6953 13.2813 19.4609 12.5859 17.7813 11.5781C16.1016 10.5781 14.0703 9.27344 11.9609 7.89062C8.25781 5.45 4.39531 2.82891 1.78984 1.18359ZM14.9922 1.40625C16.3672 2.29766 18.75 3.90547 21.2344 5.87734C25.0547 8.90625 29.0156 12.8438 29.7422 15.7969V15.8047C29.9297 16.5859 30.0156 18.6797 29.9609 21.2109C29.9063 23.7344 29.75 26.75 29.5547 29.6484C29.3203 33.1797 29.0391 36.5156 28.8594 38.5938H30.2734C30.4531 36.5 30.7266 33.2188 30.9609 29.7422C31.1484 26.8359 31.3125 23.8047 31.3672 21.2344C31.4219 18.6719 31.3984 16.6406 31.1016 15.4688V15.4609C30.1797 11.7187 26.0078 7.86719 22.1094 4.775C20.4531 3.46172 18.8359 2.30547 17.5234 1.40625H14.9922ZM1.40625 11.1484V13.0625C5.23047 16.5469 10.6641 21.0078 14.2109 23.5547C13.3828 28.1484 13.5391 33.9219 13.6641 38.5938H15.0703C14.9375 33.7578 14.7969 27.7891 15.6641 23.3828L15.7578 22.9297L15.3828 22.6641C11.6484 20.0313 5.28047 14.7656 1.40625 11.1484ZM26.1953 13.7266L26.8203 19.9453C27.4844 19.5625 27.8984 19.1016 28.1484 18.6172C28.4844 17.9453 28.5234 17.1797 28.3359 16.4141C28.0313 15.2422 27.1484 14.1797 26.1953 13.7266ZM24.75 20.5625C24.5469 20.6953 24.2188 21.0156 23.7188 21.3594C22.7969 22 21.2656 22.5938 18.5547 22.4375C18.4922 23.0703 18.7578 23.625 19.3516 24.1953C20.0859 24.9141 21.3359 25.5391 22.8047 25.8672L23.0391 25.9219L23.1953 26.1094C23.5469 26.5469 23.6406 27.0156 23.7812 27.6797C23.9219 28.3437 24.0469 29.1719 24.1563 30.1094C24.375 31.9922 24.5391 34.3281 24.6563 36.6094C24.6875 37.2813 24.7188 37.9453 24.7422 38.5938H27.0078C26.9141 34.4297 26.9609 29.75 27.4141 24.8125C27.4219 23.8516 27.375 22.9141 27.0703 22.1797C26.7656 21.4453 26.2578 20.8984 25.1172 20.5C24.9688 20.4453 24.8437 20.5 24.75 20.5625ZM18.7656 25.5547C18.7656 25.8047 18.7734 26.0547 18.7891 26.3047C18.8437 27.3672 19.0469 28.3125 19.3516 28.7109L19.5 28.9063L19.4687 38.5938H20.8594L21.0234 28.6484L21.2031 28.4531C21.6484 27.9688 21.8437 27.5547 21.9844 27.1016C20.7422 26.7656 19.625 26.25 18.7656 25.5547Z" fill="#7b8250"/>
</svg>
