<svg width="40" height="40" viewBox="0 0 40 40" fill="none" xmlns="http://www.w3.org/2000/svg">
<path d="M13.125 20C14.9484 20 16.697 19.2757 17.9864 17.9864C19.2757 16.697 20 14.9484 20 13.125C20 11.3016 19.2757 9.55295 17.9864 8.26364C16.697 6.97433 14.9484 6.25 13.125 6.25C11.3016 6.25 9.55295 6.97433 8.26364 8.26364C6.97433 9.55295 6.25 11.3016 6.25 13.125C6.25 14.9484 6.97433 16.697 8.26364 17.9864C9.55295 19.2757 11.3016 20 13.125 20ZM28.75 20C30.0761 20 31.3479 19.4732 32.2855 18.5355C33.2232 17.5979 33.75 16.3261 33.75 15C33.75 13.6739 33.2232 12.4021 32.2855 11.4645C31.3479 10.5268 30.0761 10 28.75 10C27.4239 10 26.1521 10.5268 25.2145 11.4645C24.2768 12.4021 23.75 13.6739 23.75 15C23.75 16.3261 24.2768 17.5979 25.2145 18.5355C26.1521 19.4732 27.4239 20 28.75 20ZM6.25 22.5C5.25544 22.5 4.30161 22.8951 3.59835 23.5983C2.89509 24.3016 2.5 25.2554 2.5 26.25V26.4375C2.5 26.4375 2.5 33.75 13.125 33.75C23.75 33.75 23.75 26.4375 23.75 26.4375V26.25C23.75 25.2554 23.3549 24.3016 22.6517 23.5983C21.9484 22.8951 20.9946 22.5 20 22.5H6.25ZM28.75 31.25C26.93 31.25 25.49 31.0025 24.3488 30.6087C24.8888 29.7337 25.1987 28.89 25.3737 28.2087C25.5013 27.7192 25.582 27.2186 25.615 26.7138L25.62 26.58L25.6212 26.5275V26.25C25.6239 24.8661 25.1141 23.5302 24.19 22.5H34.4913C34.8863 22.4998 35.2775 22.5775 35.6426 22.7286C36.0076 22.8796 36.3393 23.1011 36.6187 23.3804C36.8981 23.6597 37.1197 23.9913 37.2709 24.3563C37.4222 24.7213 37.5 25.1124 37.5 25.5075C37.5 25.5075 37.5 31.25 28.75 31.25Z" fill="#c9633b"/>
</svg>
