<svg xmlns="http://www.w3.org/2000/svg" fill="none" viewBox="0 0 40 40"><path fill="#c9633b" fill-rule="evenodd" d="M2.083 20c0-9.895 8.022-17.917 17.917-17.917 9.895 0 17.917 8.022 17.917 17.917 0 9.895-8.022 17.917-17.917 17.917-9.895 0-17.917-8.022-17.917-17.917Zm17.897-7.083c-3.812 0-6.733 2.553-7.072 5.556a1.25 1.25 0 0 1-2.483-.28c.502-4.483 4.702-7.776 9.555-7.776 2.783 0 5.33 1.073 7.103 2.828V12.5a1.25 1.25 0 0 1 2.5 0v2.703a2.25 2.25 0 0 1-2.25 2.25h-3.176a1.25 1.25 0 1 1 0-2.5h1.096c-1.283-1.233-3.15-2.036-5.273-2.036Zm.04 14.166c3.577 0 6.697-3.046 7.067-7.195a1.25 1.25 0 1 1 2.491.224c-.466 5.21-4.47 9.471-9.558 9.471-2.847 0-5.365-1.345-7.103-3.436v1.186a1.25 1.25 0 0 1-2.5 0v-3.628a2.25 2.25 0 0 1 2.25-2.25h3.176a1.25 1.25 0 1 1 0 2.5h-1.455c1.317 1.93 3.377 3.128 5.632 3.128Z" clip-rule="evenodd"/></svg>