<svg width="34" height="38" viewBox="0 0 34 38" fill="none" xmlns="http://www.w3.org/2000/svg">
<path d="M2 6.71337L17.0075 2.33337L32 6.71337V15.695C32 25.135 25.9583 32.6825 17.0025 35.6667C8.04417 32.6834 2 25.1334 2 15.6909V6.71337Z" stroke="#7b8250" stroke-width="4" stroke-linejoin="round"/>
<path d="M17 18.1667C19.3012 18.1667 21.1667 16.3012 21.1667 14C21.1667 11.6989 19.3012 9.83337 17 9.83337C14.6988 9.83337 12.8333 11.6989 12.8333 14C12.8333 16.3012 14.6988 18.1667 17 18.1667Z" stroke="#7b8250" stroke-width="4" stroke-linecap="round" stroke-linejoin="round"/>
<path d="M23.6667 24.8334C23.6667 23.0653 22.9643 21.3696 21.7141 20.1194C20.4638 18.8691 18.7681 18.1667 17 18.1667C15.2319 18.1667 13.5362 18.8691 12.286 20.1194C11.0357 21.3696 10.3333 23.0653 10.3333 24.8334" stroke="#7b8250" stroke-width="4" stroke-linecap="round" stroke-linejoin="round"/>
</svg>
