<svg width="40" height="40" viewBox="0 0 40 40" fill="none" xmlns="http://www.w3.org/2000/svg">
<path d="M8.75 5C7.7625 5 6.92875 5.575 6.52375 6.40625C4.94125 6.84625 3.75 8.28625 3.75 10V21.7188L4.0625 22.07C4.0625 22.07 7.00625 25.5175 11.25 26.1325V28.75C11.25 32.875 14.625 36.25 18.75 36.25C22.875 36.25 26.25 32.875 26.25 28.75V22.5C26.25 21.1038 27.3538 20 28.75 20C30.1462 20 31.25 21.1038 31.25 22.5V22.735C29.805 23.2562 28.75 24.6338 28.75 26.25C28.75 28.3062 30.4438 30 32.5 30C34.5562 30 36.25 28.3062 36.25 26.25C36.25 24.6338 35.195 23.2563 33.75 22.7338V22.5C33.75 19.75 31.5 17.5 28.75 17.5C26 17.5 23.75 19.75 23.75 22.5V28.75C23.75 31.5238 21.5238 33.75 18.75 33.75C15.9762 33.75 13.75 31.5238 13.75 28.75V26.1325C17.9937 25.5175 20.9375 22.07 20.9375 22.07L21.25 21.7188V10C21.25 8.28625 20.0588 6.84625 18.4763 6.40625C18.2752 5.98601 17.9596 5.63108 17.5658 5.3823C17.1719 5.13352 16.7158 5.001 16.25 5C15.587 5 14.9511 5.26339 14.4822 5.73223C14.0134 6.20107 13.75 6.83696 13.75 7.5C13.75 8.16304 14.0134 8.79893 14.4822 9.26777C14.9511 9.73661 15.587 10 16.25 10C17.07 10 17.7875 9.6 18.2425 8.98375C18.555 9.20875 18.75 9.575 18.75 10V20.7037C18.3 21.1575 15.64 23.75 12.5 23.75C9.36 23.75 6.7 21.1575 6.25 20.7025V10C6.25 9.575 6.445 9.20875 6.7575 8.98375C7.2125 9.6 7.93 10 8.75 10C9.41304 10 10.0489 9.73661 10.5178 9.26777C10.9866 8.79893 11.25 8.16304 11.25 7.5C11.25 6.83696 10.9866 6.20107 10.5178 5.73223C10.0489 5.26339 9.41304 5 8.75 5ZM32.5 25C33.2038 25 33.75 25.5475 33.75 26.25C33.75 26.9538 33.2025 27.5 32.5 27.5C31.7962 27.5 31.25 26.9525 31.25 26.25C31.25 25.5462 31.7975 25 32.5 25Z" fill="#7b8250"/>
</svg>
